<?xml version="1.0" encoding="UTF-8" standalone="no"?>
<!DOCTYPE svg PUBLIC "-//W3C//DTD SVG 1.1//EN"
 "http://www.w3.org/Graphics/SVG/1.1/DTD/svg11.dtd">
<!-- Generated by graphviz version 2.42.3 (20191010.1750)
 -->
<!-- Title: %3 Pages: 1 -->
<svg width="3796pt" height="404pt"
 viewBox="0.00 0.00 3795.97 404.00" xmlns="http://www.w3.org/2000/svg" xmlns:xlink="http://www.w3.org/1999/xlink">
<g id="graph0" class="graph" transform="scale(1 1) rotate(0) translate(4 400)">
<title>%3</title>
<polygon fill="white" stroke="transparent" points="-4,4 -4,-400 3791.97,-400 3791.97,4 -4,4"/>
<!-- prepare -->
<g id="node1" class="node">
<title>prepare</title>
<ellipse fill="none" stroke="black" cx="2026.33" cy="-18" rx="47.39" ry="18"/>
<text text-anchor="middle" x="2026.33" y="-14.3" font-family="Times,serif" font-size="14.00">prepare</text>
</g>
<!-- features -->
<g id="node2" class="node">
<title>features</title>
<ellipse fill="none" stroke="black" cx="2026.33" cy="-90" rx="49.29" ry="18"/>
<text text-anchor="middle" x="2026.33" y="-86.3" font-family="Times,serif" font-size="14.00">features</text>
</g>
<!-- features&#45;&gt;prepare -->
<g id="edge1" class="edge">
<title>features&#45;&gt;prepare</title>
<path fill="none" stroke="black" d="M2026.33,-71.7C2026.33,-63.98 2026.33,-54.71 2026.33,-46.11"/>
<polygon fill="black" stroke="black" points="2029.83,-46.1 2026.33,-36.1 2022.83,-46.1 2029.83,-46.1"/>
</g>
<!-- split -->
<g id="node3" class="node">
<title>split</title>
<ellipse fill="none" stroke="black" cx="2026.33" cy="-162" rx="31.4" ry="18"/>
<text text-anchor="middle" x="2026.33" y="-158.3" font-family="Times,serif" font-size="14.00">split</text>
</g>
<!-- split&#45;&gt;features -->
<g id="edge2" class="edge">
<title>split&#45;&gt;features</title>
<path fill="none" stroke="black" d="M2026.33,-143.7C2026.33,-135.98 2026.33,-126.71 2026.33,-118.11"/>
<polygon fill="black" stroke="black" points="2029.83,-118.1 2026.33,-108.1 2022.83,-118.1 2029.83,-118.1"/>
</g>
<!-- stats -->
<g id="node4" class="node">
<title>stats</title>
<ellipse fill="none" stroke="black" cx="1922.33" cy="-234" rx="33.6" ry="18"/>
<text text-anchor="middle" x="1922.33" y="-230.3" font-family="Times,serif" font-size="14.00">stats</text>
</g>
<!-- stats&#45;&gt;split -->
<g id="edge3" class="edge">
<title>stats&#45;&gt;split</title>
<path fill="none" stroke="black" d="M1942.39,-219.5C1958.17,-208.88 1980.36,-193.94 1997.97,-182.09"/>
<polygon fill="black" stroke="black" points="2000.35,-184.71 2006.69,-176.22 1996.44,-178.9 2000.35,-184.71"/>
</g>
<!-- fit@feed_forward_bernstein_flow -->
<g id="node5" class="node">
<title>fit@feed_forward_bernstein_flow</title>
<ellipse fill="none" stroke="black" cx="252.33" cy="-306" rx="165.17" ry="18"/>
<text text-anchor="middle" x="252.33" y="-302.3" font-family="Times,serif" font-size="14.00">fit@feed_forward_bernstein_flow</text>
</g>
<!-- fit@feed_forward_bernstein_flow&#45;&gt;split -->
<g id="edge4" class="edge">
<title>fit@feed_forward_bernstein_flow&#45;&gt;split</title>
<path fill="none" stroke="black" d="M322.87,-289.67C420.91,-269.06 604.16,-233.04 762.33,-216 1240.5,-164.48 1825.44,-162.32 1984.65,-162.77"/>
<polygon fill="black" stroke="black" points="1984.94,-166.27 1994.95,-162.81 1984.96,-159.27 1984.94,-166.27"/>
</g>
<!-- fit@feed_forward_bernstein_flow&#45;&gt;stats -->
<g id="edge5" class="edge">
<title>fit@feed_forward_bernstein_flow&#45;&gt;stats</title>
<path fill="none" stroke="black" d="M365.97,-292.87C386.06,-291.02 406.8,-289.3 426.33,-288 999.66,-249.87 1698.54,-238.07 1878.46,-235.56"/>
<polygon fill="black" stroke="black" points="1878.64,-239.06 1888.59,-235.42 1878.54,-232.06 1878.64,-239.06"/>
</g>
<!-- fit@feed_forward_gaussian_mixture_model -->
<g id="node6" class="node">
<title>fit@feed_forward_gaussian_mixture_model</title>
<ellipse fill="none" stroke="black" cx="647.33" cy="-306" rx="211.76" ry="18"/>
<text text-anchor="middle" x="647.33" y="-302.3" font-family="Times,serif" font-size="14.00">fit@feed_forward_gaussian_mixture_model</text>
</g>
<!-- fit@feed_forward_gaussian_mixture_model&#45;&gt;split -->
<g id="edge6" class="edge">
<title>fit@feed_forward_gaussian_mixture_model&#45;&gt;split</title>
<path fill="none" stroke="black" d="M679.96,-288.18C722.96,-266.94 801.58,-231.33 873.33,-216 1091.88,-169.29 1804.93,-163.74 1984.82,-163.09"/>
<polygon fill="black" stroke="black" points="1984.94,-166.59 1994.93,-163.05 1984.92,-159.59 1984.94,-166.59"/>
</g>
<!-- fit@feed_forward_gaussian_mixture_model&#45;&gt;stats -->
<g id="edge7" class="edge">
<title>fit@feed_forward_gaussian_mixture_model&#45;&gt;stats</title>
<path fill="none" stroke="black" d="M807.23,-294.17C840.01,-292.04 874.28,-289.89 906.33,-288 1282.25,-265.86 1736.69,-243.84 1878.15,-237.09"/>
<polygon fill="black" stroke="black" points="1878.74,-240.57 1888.56,-236.6 1878.4,-233.58 1878.74,-240.57"/>
</g>
<!-- fit@feed_forward_normal_distribution -->
<g id="node7" class="node">
<title>fit@feed_forward_normal_distribution</title>
<ellipse fill="none" stroke="black" cx="1103.33" cy="-306" rx="188.47" ry="18"/>
<text text-anchor="middle" x="1103.33" y="-302.3" font-family="Times,serif" font-size="14.00">fit@feed_forward_normal_distribution</text>
</g>
<!-- fit@feed_forward_normal_distribution&#45;&gt;split -->
<g id="edge8" class="edge">
<title>fit@feed_forward_normal_distribution&#45;&gt;split</title>
<path fill="none" stroke="black" d="M1151.12,-288.5C1212.45,-268.04 1322.48,-233.71 1419.33,-216 1629.67,-177.55 1886.28,-166.78 1984.96,-163.94"/>
<polygon fill="black" stroke="black" points="1985.21,-167.44 1995.11,-163.67 1985.01,-160.44 1985.21,-167.44"/>
</g>
<!-- fit@feed_forward_normal_distribution&#45;&gt;stats -->
<g id="edge9" class="edge">
<title>fit@feed_forward_normal_distribution&#45;&gt;stats</title>
<path fill="none" stroke="black" d="M1238.57,-293.44C1427.55,-277.29 1760.75,-248.81 1879.12,-238.69"/>
<polygon fill="black" stroke="black" points="1879.57,-242.17 1889.24,-237.83 1878.98,-235.19 1879.57,-242.17"/>
</g>
<!-- fit@feed_forward_quantile_regression -->
<g id="node8" class="node">
<title>fit@feed_forward_quantile_regression</title>
<ellipse fill="none" stroke="black" cx="1649.33" cy="-306" rx="188.47" ry="18"/>
<text text-anchor="middle" x="1649.33" y="-302.3" font-family="Times,serif" font-size="14.00">fit@feed_forward_quantile_regression</text>
</g>
<!-- fit@feed_forward_quantile_regression&#45;&gt;split -->
<g id="edge10" class="edge">
<title>fit@feed_forward_quantile_regression&#45;&gt;split</title>
<path fill="none" stroke="black" d="M1691.61,-288.3C1737.66,-270.19 1813.56,-240.58 1879.33,-216 1917.35,-201.79 1961.13,-186.09 1990.96,-175.5"/>
<polygon fill="black" stroke="black" points="1992.25,-178.75 2000.51,-172.11 1989.91,-172.15 1992.25,-178.75"/>
</g>
<!-- fit@feed_forward_quantile_regression&#45;&gt;stats -->
<g id="edge11" class="edge">
<title>fit@feed_forward_quantile_regression&#45;&gt;stats</title>
<path fill="none" stroke="black" d="M1711.96,-288.94C1764.39,-275.5 1837.63,-256.72 1882.42,-245.23"/>
<polygon fill="black" stroke="black" points="1883.53,-248.56 1892.34,-242.69 1881.79,-241.78 1883.53,-248.56"/>
</g>
<!-- fit@wavenet_bernstein_flow -->
<g id="node9" class="node">
<title>fit@wavenet_bernstein_flow</title>
<ellipse fill="none" stroke="black" cx="2112.33" cy="-306" rx="142.97" ry="18"/>
<text text-anchor="middle" x="2112.33" y="-302.3" font-family="Times,serif" font-size="14.00">fit@wavenet_bernstein_flow</text>
</g>
<!-- fit@wavenet_bernstein_flow&#45;&gt;split -->
<g id="edge12" class="edge">
<title>fit@wavenet_bernstein_flow&#45;&gt;split</title>
<path fill="none" stroke="black" d="M2101.96,-287.87C2086.88,-262.98 2058.82,-216.65 2041.45,-187.96"/>
<polygon fill="black" stroke="black" points="2044.39,-186.05 2036.21,-179.31 2038.4,-189.68 2044.39,-186.05"/>
</g>
<!-- fit@wavenet_bernstein_flow&#45;&gt;stats -->
<g id="edge13" class="edge">
<title>fit@wavenet_bernstein_flow&#45;&gt;stats</title>
<path fill="none" stroke="black" d="M2068.27,-288.76C2035.13,-276.56 1990.25,-260.02 1959.05,-248.53"/>
<polygon fill="black" stroke="black" points="1960.02,-245.16 1949.43,-244.98 1957.6,-251.72 1960.02,-245.16"/>
</g>
<!-- fit@wavenet_gaussian_mixture_model -->
<g id="node10" class="node">
<title>fit@wavenet_gaussian_mixture_model</title>
<ellipse fill="none" stroke="black" cx="2463.33" cy="-306" rx="189.57" ry="18"/>
<text text-anchor="middle" x="2463.33" y="-302.3" font-family="Times,serif" font-size="14.00">fit@wavenet_gaussian_mixture_model</text>
</g>
<!-- fit@wavenet_gaussian_mixture_model&#45;&gt;split -->
<g id="edge14" class="edge">
<title>fit@wavenet_gaussian_mixture_model&#45;&gt;split</title>
<path fill="none" stroke="black" d="M2412.78,-288.57C2323.65,-259.61 2140.65,-200.15 2062.75,-174.83"/>
<polygon fill="black" stroke="black" points="2063.5,-171.4 2052.91,-171.63 2061.33,-178.05 2063.5,-171.4"/>
</g>
<!-- fit@wavenet_gaussian_mixture_model&#45;&gt;stats -->
<g id="edge15" class="edge">
<title>fit@wavenet_gaussian_mixture_model&#45;&gt;stats</title>
<path fill="none" stroke="black" d="M2356.13,-291.13C2236.48,-275.65 2048.74,-251.36 1965.06,-240.53"/>
<polygon fill="black" stroke="black" points="1965.27,-237.03 1954.9,-239.21 1964.37,-243.97 1965.27,-237.03"/>
</g>
<!-- fit@wavenet_normal_distribution -->
<g id="node11" class="node">
<title>fit@wavenet_normal_distribution</title>
<ellipse fill="none" stroke="black" cx="3166.33" cy="-306" rx="166.27" ry="18"/>
<text text-anchor="middle" x="3166.33" y="-302.3" font-family="Times,serif" font-size="14.00">fit@wavenet_normal_distribution</text>
</g>
<!-- fit@wavenet_normal_distribution&#45;&gt;split -->
<g id="edge16" class="edge">
<title>fit@wavenet_normal_distribution&#45;&gt;split</title>
<path fill="none" stroke="black" d="M3106.08,-289.2C3026.24,-268.92 2880.73,-234.16 2754.33,-216 2494.9,-178.72 2179.48,-167.08 2067.88,-163.99"/>
<polygon fill="black" stroke="black" points="2067.81,-160.49 2057.72,-163.72 2067.62,-167.48 2067.81,-160.49"/>
</g>
<!-- fit@wavenet_normal_distribution&#45;&gt;stats -->
<g id="edge17" class="edge">
<title>fit@wavenet_normal_distribution&#45;&gt;stats</title>
<path fill="none" stroke="black" d="M3050.43,-293.03C3030.4,-291.18 3009.77,-289.42 2990.33,-288 2593.4,-259 2112.28,-241.4 1966.36,-236.45"/>
<polygon fill="black" stroke="black" points="1966.15,-232.94 1956.04,-236.1 1965.91,-239.93 1966.15,-232.94"/>
</g>
<!-- fit@wavenet_quantile_regression -->
<g id="node12" class="node">
<title>fit@wavenet_quantile_regression</title>
<ellipse fill="none" stroke="black" cx="3592.33" cy="-306" rx="166.27" ry="18"/>
<text text-anchor="middle" x="3592.33" y="-302.3" font-family="Times,serif" font-size="14.00">fit@wavenet_quantile_regression</text>
</g>
<!-- fit@wavenet_quantile_regression&#45;&gt;split -->
<g id="edge18" class="edge">
<title>fit@wavenet_quantile_regression&#45;&gt;split</title>
<path fill="none" stroke="black" d="M3566.86,-288.05C3533.15,-266.68 3471.12,-230.93 3412.33,-216 3279.36,-182.23 2284.69,-166.58 2067.95,-163.55"/>
<polygon fill="black" stroke="black" points="2067.69,-160.05 2057.65,-163.41 2067.6,-167.05 2067.69,-160.05"/>
</g>
<!-- fit@wavenet_quantile_regression&#45;&gt;stats -->
<g id="edge19" class="edge">
<title>fit@wavenet_quantile_regression&#45;&gt;stats</title>
<path fill="none" stroke="black" d="M3458.86,-295.21C3420.9,-292.62 3379.5,-290 3341.33,-288 2799.41,-259.53 2140.27,-240.83 1966.19,-236.15"/>
<polygon fill="black" stroke="black" points="1966.22,-232.65 1956.13,-235.88 1966.03,-239.65 1966.22,-232.65"/>
</g>
<!-- evaluate@feed_forward_bernstein_flow -->
<g id="node13" class="node">
<title>evaluate@feed_forward_bernstein_flow</title>
<ellipse fill="none" stroke="black" cx="194.33" cy="-378" rx="194.17" ry="18"/>
<text text-anchor="middle" x="194.33" y="-374.3" font-family="Times,serif" font-size="14.00">evaluate@feed_forward_bernstein_flow</text>
</g>
<!-- evaluate@feed_forward_bernstein_flow&#45;&gt;split -->
<g id="edge20" class="edge">
<title>evaluate@feed_forward_bernstein_flow&#45;&gt;split</title>
<path fill="none" stroke="black" d="M117.76,-361.35C98.06,-353.49 79.12,-341.7 67.33,-324 38.4,-280.58 67.93,-241.7 113.33,-216 197.55,-168.34 1713.32,-163.53 1984.86,-163.05"/>
<polygon fill="black" stroke="black" points="1985.08,-166.55 1995.07,-163.04 1985.07,-159.55 1985.08,-166.55"/>
</g>
<!-- evaluate@feed_forward_bernstein_flow&#45;&gt;stats -->
<g id="edge21" class="edge">
<title>evaluate@feed_forward_bernstein_flow&#45;&gt;stats</title>
<path fill="none" stroke="black" d="M328.31,-364.95C351.32,-363.11 375.01,-361.38 397.33,-360 497.55,-353.81 1209.24,-366.26 1300.33,-324 1320.02,-314.87 1313.88,-297.62 1333.33,-288 1429.03,-240.67 1757.97,-235.26 1878.02,-234.9"/>
<polygon fill="black" stroke="black" points="1878.32,-238.4 1888.31,-234.88 1878.31,-231.4 1878.32,-238.4"/>
</g>
<!-- evaluate@feed_forward_bernstein_flow&#45;&gt;fit@feed_forward_bernstein_flow -->
<g id="edge22" class="edge">
<title>evaluate@feed_forward_bernstein_flow&#45;&gt;fit@feed_forward_bernstein_flow</title>
<path fill="none" stroke="black" d="M208.67,-359.7C215.62,-351.3 224.1,-341.07 231.73,-331.86"/>
<polygon fill="black" stroke="black" points="234.48,-334.04 238.16,-324.1 229.09,-329.57 234.48,-334.04"/>
</g>
<!-- evaluate@feed_forward_gaussian_mixture_model -->
<g id="node14" class="node">
<title>evaluate@feed_forward_gaussian_mixture_model</title>
<ellipse fill="none" stroke="black" cx="647.33" cy="-378" rx="241.26" ry="18"/>
<text text-anchor="middle" x="647.33" y="-374.3" font-family="Times,serif" font-size="14.00">evaluate@feed_forward_gaussian_mixture_model</text>
</g>
<!-- evaluate@feed_forward_gaussian_mixture_model&#45;&gt;split -->
<g id="edge23" class="edge">
<title>evaluate@feed_forward_gaussian_mixture_model&#45;&gt;split</title>
<path fill="none" stroke="black" d="M486.12,-364.6C320.32,-351.45 85.23,-331.57 78.33,-324 67.56,-312.17 67.97,-300.19 78.33,-288 207.26,-136.37 322.26,-235.54 520.33,-216 1098.87,-158.93 1807.74,-161 1984.79,-162.54"/>
<polygon fill="black" stroke="black" points="1984.93,-166.04 1994.96,-162.64 1985,-159.05 1984.93,-166.04"/>
</g>
<!-- evaluate@feed_forward_gaussian_mixture_model&#45;&gt;stats -->
<g id="edge24" class="edge">
<title>evaluate@feed_forward_gaussian_mixture_model&#45;&gt;stats</title>
<path fill="none" stroke="black" d="M817.52,-365.25C1016.85,-351.28 1321.61,-329.2 1333.33,-324 1354.6,-314.56 1350.16,-297.64 1371.33,-288 1461.56,-246.93 1764.22,-237.64 1878.31,-235.57"/>
<polygon fill="black" stroke="black" points="1878.49,-239.07 1888.43,-235.4 1878.37,-232.07 1878.49,-239.07"/>
</g>
<!-- evaluate@feed_forward_gaussian_mixture_model&#45;&gt;fit@feed_forward_gaussian_mixture_model -->
<g id="edge25" class="edge">
<title>evaluate@feed_forward_gaussian_mixture_model&#45;&gt;fit@feed_forward_gaussian_mixture_model</title>
<path fill="none" stroke="black" d="M647.33,-359.7C647.33,-351.98 647.33,-342.71 647.33,-334.11"/>
<polygon fill="black" stroke="black" points="650.83,-334.1 647.33,-324.1 643.83,-334.1 650.83,-334.1"/>
</g>
<!-- evaluate@feed_forward_normal_distribution -->
<g id="node15" class="node">
<title>evaluate@feed_forward_normal_distribution</title>
<ellipse fill="none" stroke="black" cx="1124.33" cy="-378" rx="217.96" ry="18"/>
<text text-anchor="middle" x="1124.33" y="-374.3" font-family="Times,serif" font-size="14.00">evaluate@feed_forward_normal_distribution</text>
</g>
<!-- evaluate@feed_forward_normal_distribution&#45;&gt;split -->
<g id="edge26" class="edge">
<title>evaluate@feed_forward_normal_distribution&#45;&gt;split</title>
<path fill="none" stroke="black" d="M994.13,-363.54C929.81,-351.57 872.5,-329.25 906.33,-288 976.24,-202.78 1790.97,-170.73 1985.03,-164.28"/>
<polygon fill="black" stroke="black" points="1985.22,-167.78 1995.1,-163.95 1984.99,-160.78 1985.22,-167.78"/>
</g>
<!-- evaluate@feed_forward_normal_distribution&#45;&gt;stats -->
<g id="edge27" class="edge">
<title>evaluate@feed_forward_normal_distribution&#45;&gt;stats</title>
<path fill="none" stroke="black" d="M1217.61,-361.7C1264.37,-352.85 1321.5,-340.23 1371.33,-324 1408.79,-311.8 1414.32,-298.33 1452.33,-288 1604.89,-246.56 1793.79,-237.47 1878.1,-235.52"/>
<polygon fill="black" stroke="black" points="1878.41,-239.01 1888.34,-235.3 1878.26,-232.01 1878.41,-239.01"/>
</g>
<!-- evaluate@feed_forward_normal_distribution&#45;&gt;fit@feed_forward_normal_distribution -->
<g id="edge28" class="edge">
<title>evaluate@feed_forward_normal_distribution&#45;&gt;fit@feed_forward_normal_distribution</title>
<path fill="none" stroke="black" d="M1119.14,-359.7C1116.8,-351.9 1113.99,-342.51 1111.38,-333.83"/>
<polygon fill="black" stroke="black" points="1114.69,-332.68 1108.46,-324.1 1107.99,-334.69 1114.69,-332.68"/>
</g>
<!-- evaluate@feed_forward_quantile_regression -->
<g id="node16" class="node">
<title>evaluate@feed_forward_quantile_regression</title>
<ellipse fill="none" stroke="black" cx="1649.33" cy="-378" rx="217.96" ry="18"/>
<text text-anchor="middle" x="1649.33" y="-374.3" font-family="Times,serif" font-size="14.00">evaluate@feed_forward_quantile_regression</text>
</g>
<!-- evaluate@feed_forward_quantile_regression&#45;&gt;split -->
<g id="edge29" class="edge">
<title>evaluate@feed_forward_quantile_regression&#45;&gt;split</title>
<path fill="none" stroke="black" d="M1537.26,-362.52C1476.86,-349.96 1420.61,-327.38 1452.33,-288 1519.72,-204.35 1864.83,-173.73 1985.01,-165.5"/>
<polygon fill="black" stroke="black" points="1985.52,-168.98 1995.26,-164.82 1985.05,-161.99 1985.52,-168.98"/>
</g>
<!-- evaluate@feed_forward_quantile_regression&#45;&gt;stats -->
<g id="edge30" class="edge">
<title>evaluate@feed_forward_quantile_regression&#45;&gt;stats</title>
<path fill="none" stroke="black" d="M1750.31,-362.05C1782.7,-354.15 1817.59,-342.16 1846.33,-324 1872.07,-307.74 1893.71,-280.03 1907.24,-259.84"/>
<polygon fill="black" stroke="black" points="1910.19,-261.72 1912.7,-251.43 1904.32,-257.91 1910.19,-261.72"/>
</g>
<!-- evaluate@feed_forward_quantile_regression&#45;&gt;fit@feed_forward_quantile_regression -->
<g id="edge31" class="edge">
<title>evaluate@feed_forward_quantile_regression&#45;&gt;fit@feed_forward_quantile_regression</title>
<path fill="none" stroke="black" d="M1649.33,-359.7C1649.33,-351.98 1649.33,-342.71 1649.33,-334.11"/>
<polygon fill="black" stroke="black" points="1652.83,-334.1 1649.33,-324.1 1645.83,-334.1 1652.83,-334.1"/>
</g>
<!-- evaluate@wavenet_bernstein_flow -->
<g id="node17" class="node">
<title>evaluate@wavenet_bernstein_flow</title>
<ellipse fill="none" stroke="black" cx="2085.33" cy="-378" rx="172.47" ry="18"/>
<text text-anchor="middle" x="2085.33" y="-374.3" font-family="Times,serif" font-size="14.00">evaluate@wavenet_bernstein_flow</text>
</g>
<!-- evaluate@wavenet_bernstein_flow&#45;&gt;split -->
<g id="edge32" class="edge">
<title>evaluate@wavenet_bernstein_flow&#45;&gt;split</title>
<path fill="none" stroke="black" d="M2208.49,-365.38C2227.85,-363.57 2247.63,-361.73 2266.33,-360 2310.33,-355.93 2632.54,-356.62 2662.33,-324 2673.12,-312.19 2672.5,-300.36 2662.33,-288 2586.2,-195.44 2196.43,-170.37 2067.67,-164.56"/>
<polygon fill="black" stroke="black" points="2067.59,-161.05 2057.44,-164.12 2067.28,-168.05 2067.59,-161.05"/>
</g>
<!-- evaluate@wavenet_bernstein_flow&#45;&gt;stats -->
<g id="edge33" class="edge">
<title>evaluate@wavenet_bernstein_flow&#45;&gt;stats</title>
<path fill="none" stroke="black" d="M1986.34,-363.26C1963.63,-355.38 1941.9,-343.09 1927.33,-324 1914.03,-306.56 1913.92,-281.14 1916.48,-261.94"/>
<polygon fill="black" stroke="black" points="1919.95,-262.43 1918.11,-251.99 1913.04,-261.29 1919.95,-262.43"/>
</g>
<!-- evaluate@wavenet_bernstein_flow&#45;&gt;fit@wavenet_bernstein_flow -->
<g id="edge34" class="edge">
<title>evaluate@wavenet_bernstein_flow&#45;&gt;fit@wavenet_bernstein_flow</title>
<path fill="none" stroke="black" d="M2092.01,-359.7C2095.05,-351.81 2098.72,-342.3 2102.09,-333.55"/>
<polygon fill="black" stroke="black" points="2105.4,-334.69 2105.74,-324.1 2098.87,-332.17 2105.4,-334.69"/>
</g>
<!-- evaluate@wavenet_gaussian_mixture_model -->
<g id="node18" class="node">
<title>evaluate@wavenet_gaussian_mixture_model</title>
<ellipse fill="none" stroke="black" cx="2494.33" cy="-378" rx="219.06" ry="18"/>
<text text-anchor="middle" x="2494.33" y="-374.3" font-family="Times,serif" font-size="14.00">evaluate@wavenet_gaussian_mixture_model</text>
</g>
<!-- evaluate@wavenet_gaussian_mixture_model&#45;&gt;split -->
<g id="edge35" class="edge">
<title>evaluate@wavenet_gaussian_mixture_model&#45;&gt;split</title>
<path fill="none" stroke="black" d="M2680.48,-368.5C2926.43,-356.83 3330.13,-335.93 3341.33,-324 3352.29,-312.34 3351.77,-300.13 3341.33,-288 3256.16,-189.01 2281.49,-167.21 2067.64,-163.61"/>
<polygon fill="black" stroke="black" points="2067.53,-160.11 2057.47,-163.45 2067.41,-167.11 2067.53,-160.11"/>
</g>
<!-- evaluate@wavenet_gaussian_mixture_model&#45;&gt;stats -->
<g id="edge36" class="edge">
<title>evaluate@wavenet_gaussian_mixture_model&#45;&gt;stats</title>
<path fill="none" stroke="black" d="M2338.07,-365.38C2185.99,-353.48 1975.57,-335.18 1960.33,-324 1940.61,-309.53 1931.03,-282.72 1926.43,-262.3"/>
<polygon fill="black" stroke="black" points="1929.83,-261.43 1924.46,-252.3 1922.96,-262.79 1929.83,-261.43"/>
</g>
<!-- evaluate@wavenet_gaussian_mixture_model&#45;&gt;fit@wavenet_gaussian_mixture_model -->
<g id="edge37" class="edge">
<title>evaluate@wavenet_gaussian_mixture_model&#45;&gt;fit@wavenet_gaussian_mixture_model</title>
<path fill="none" stroke="black" d="M2486.67,-359.7C2483.14,-351.73 2478.88,-342.1 2474.96,-333.26"/>
<polygon fill="black" stroke="black" points="2478.16,-331.83 2470.91,-324.1 2471.76,-334.67 2478.16,-331.83"/>
</g>
<!-- evaluate@wavenet_normal_distribution -->
<g id="node19" class="node">
<title>evaluate@wavenet_normal_distribution</title>
<ellipse fill="none" stroke="black" cx="3166.33" cy="-378" rx="195.77" ry="18"/>
<text text-anchor="middle" x="3166.33" y="-374.3" font-family="Times,serif" font-size="14.00">evaluate@wavenet_normal_distribution</text>
</g>
<!-- evaluate@wavenet_normal_distribution&#45;&gt;split -->
<g id="edge38" class="edge">
<title>evaluate@wavenet_normal_distribution&#45;&gt;split</title>
<path fill="none" stroke="black" d="M3276.44,-363.11C3333.96,-350.88 3387.14,-328.43 3359.33,-288 3308.63,-214.28 3258.91,-234.3 3171.33,-216 2954.09,-170.6 2246.15,-164.08 2067.54,-163.15"/>
<polygon fill="black" stroke="black" points="2067.52,-159.65 2057.51,-163.1 2067.49,-166.65 2067.52,-159.65"/>
</g>
<!-- evaluate@wavenet_normal_distribution&#45;&gt;stats -->
<g id="edge39" class="edge">
<title>evaluate@wavenet_normal_distribution&#45;&gt;stats</title>
<path fill="none" stroke="black" d="M3004.2,-367.88C2924.53,-360.59 2827.74,-347.49 2743.33,-324 2705.38,-313.44 2700.55,-297.55 2662.33,-288 2529.13,-254.72 2104.56,-240.11 1966.31,-236.16"/>
<polygon fill="black" stroke="black" points="1966.19,-232.65 1956.1,-235.87 1965.99,-239.65 1966.19,-232.65"/>
</g>
<!-- evaluate@wavenet_normal_distribution&#45;&gt;fit@wavenet_normal_distribution -->
<g id="edge40" class="edge">
<title>evaluate@wavenet_normal_distribution&#45;&gt;fit@wavenet_normal_distribution</title>
<path fill="none" stroke="black" d="M3166.33,-359.7C3166.33,-351.98 3166.33,-342.71 3166.33,-334.11"/>
<polygon fill="black" stroke="black" points="3169.83,-334.1 3166.33,-324.1 3162.83,-334.1 3169.83,-334.1"/>
</g>
<!-- evaluate@wavenet_quantile_regression -->
<g id="node20" class="node">
<title>evaluate@wavenet_quantile_regression</title>
<ellipse fill="none" stroke="black" cx="3592.33" cy="-378" rx="195.77" ry="18"/>
<text text-anchor="middle" x="3592.33" y="-374.3" font-family="Times,serif" font-size="14.00">evaluate@wavenet_quantile_regression</text>
</g>
<!-- evaluate@wavenet_quantile_regression&#45;&gt;split -->
<g id="edge41" class="edge">
<title>evaluate@wavenet_quantile_regression&#45;&gt;split</title>
<path fill="none" stroke="black" d="M3684.54,-362.12C3740.95,-348.93 3797.06,-325.76 3767.33,-288 3683.06,-180.94 3604.31,-234.59 3469.33,-216 3187.85,-177.23 2273.44,-165.56 2067.7,-163.4"/>
<polygon fill="black" stroke="black" points="2067.65,-159.9 2057.61,-163.3 2067.58,-166.9 2067.65,-159.9"/>
</g>
<!-- evaluate@wavenet_quantile_regression&#45;&gt;stats -->
<g id="edge42" class="edge">
<title>evaluate@wavenet_quantile_regression&#45;&gt;stats</title>
<path fill="none" stroke="black" d="M3449.4,-365.66C3423.43,-363.7 3396.57,-361.73 3371.33,-360 3239.18,-350.92 2902.86,-363.2 2776.33,-324 2746.63,-314.8 2746.01,-297.3 2716.33,-288 2574.85,-243.69 2112.5,-236.42 1966.75,-235.23"/>
<polygon fill="black" stroke="black" points="1966.44,-231.73 1956.42,-235.15 1966.39,-238.73 1966.44,-231.73"/>
</g>
<!-- evaluate@wavenet_quantile_regression&#45;&gt;fit@wavenet_quantile_regression -->
<g id="edge43" class="edge">
<title>evaluate@wavenet_quantile_regression&#45;&gt;fit@wavenet_quantile_regression</title>
<path fill="none" stroke="black" d="M3592.33,-359.7C3592.33,-351.98 3592.33,-342.71 3592.33,-334.11"/>
<polygon fill="black" stroke="black" points="3595.83,-334.1 3592.33,-324.1 3588.83,-334.1 3595.83,-334.1"/>
</g>
<!-- evaluate@baseline -->
<g id="node21" class="node">
<title>evaluate@baseline</title>
<ellipse fill="none" stroke="black" cx="2883.33" cy="-306" rx="98.28" ry="18"/>
<text text-anchor="middle" x="2883.33" y="-302.3" font-family="Times,serif" font-size="14.00">evaluate@baseline</text>
</g>
<!-- evaluate@baseline&#45;&gt;split -->
<g id="edge44" class="edge">
<title>evaluate@baseline&#45;&gt;split</title>
<path fill="none" stroke="black" d="M2856.82,-288.62C2821.45,-267.69 2756.22,-232.24 2695.33,-216 2575.84,-184.14 2194.51,-168.67 2067.75,-164.32"/>
<polygon fill="black" stroke="black" points="2067.78,-160.82 2057.67,-163.98 2067.55,-167.82 2067.78,-160.82"/>
</g>
<!-- evaluate@baseline&#45;&gt;stats -->
<g id="edge45" class="edge">
<title>evaluate@baseline&#45;&gt;stats</title>
<path fill="none" stroke="black" d="M2813.26,-293.39C2799.39,-291.37 2784.92,-289.45 2771.33,-288 2464.2,-255.17 2092.22,-240.61 1966.36,-236.38"/>
<polygon fill="black" stroke="black" points="1966.1,-232.87 1955.99,-236.03 1965.87,-239.86 1966.1,-232.87"/>
</g>
</g>
</svg>
