<?xml version="1.0" encoding="UTF-8" standalone="no"?>
<!DOCTYPE svg PUBLIC "-//W3C//DTD SVG 1.1//EN"
 "http://www.w3.org/Graphics/SVG/1.1/DTD/svg11.dtd">
<!-- Generated by graphviz version 2.40.1 (20161225.0304)
 -->
<!-- Title: %3 Pages: 1 -->
<svg width="3212pt" height="476pt"
 viewBox="0.00 0.00 3211.97 476.00" xmlns="http://www.w3.org/2000/svg" xmlns:xlink="http://www.w3.org/1999/xlink">
<g id="graph0" class="graph" transform="scale(1 1) rotate(0) translate(4 472)">
<title>%3</title>
<polygon fill="#ffffff" stroke="transparent" points="-4,4 -4,-472 3207.9654,-472 3207.9654,4 -4,4"/>
<!-- prepare -->
<g id="node1" class="node">
<title>prepare</title>
<ellipse fill="none" stroke="#000000" cx="1701.3328" cy="-90" rx="47.3916" ry="18"/>
<text text-anchor="middle" x="1701.3328" y="-86.3" font-family="Times,serif" font-size="14.00" fill="#000000">prepare</text>
</g>
<!-- data/raw.dvc -->
<g id="node21" class="node">
<title>data/raw.dvc</title>
<ellipse fill="none" stroke="#000000" cx="1701.3328" cy="-18" rx="70.3881" ry="18"/>
<text text-anchor="middle" x="1701.3328" y="-14.3" font-family="Times,serif" font-size="14.00" fill="#000000">data/raw.dvc</text>
</g>
<!-- prepare&#45;&gt;data/raw.dvc -->
<g id="edge1" class="edge">
<title>prepare&#45;&gt;data/raw.dvc</title>
<path fill="none" stroke="#000000" d="M1701.3328,-71.8314C1701.3328,-64.131 1701.3328,-54.9743 1701.3328,-46.4166"/>
<polygon fill="#000000" stroke="#000000" points="1704.8329,-46.4132 1701.3328,-36.4133 1697.8329,-46.4133 1704.8329,-46.4132"/>
</g>
<!-- features -->
<g id="node2" class="node">
<title>features</title>
<ellipse fill="none" stroke="#000000" cx="1701.3328" cy="-162" rx="49.2915" ry="18"/>
<text text-anchor="middle" x="1701.3328" y="-158.3" font-family="Times,serif" font-size="14.00" fill="#000000">features</text>
</g>
<!-- features&#45;&gt;prepare -->
<g id="edge2" class="edge">
<title>features&#45;&gt;prepare</title>
<path fill="none" stroke="#000000" d="M1701.3328,-143.8314C1701.3328,-136.131 1701.3328,-126.9743 1701.3328,-118.4166"/>
<polygon fill="#000000" stroke="#000000" points="1704.8329,-118.4132 1701.3328,-108.4133 1697.8329,-118.4133 1704.8329,-118.4132"/>
</g>
<!-- split -->
<g id="node3" class="node">
<title>split</title>
<ellipse fill="none" stroke="#000000" cx="1701.3328" cy="-234" rx="31.3957" ry="18"/>
<text text-anchor="middle" x="1701.3328" y="-230.3" font-family="Times,serif" font-size="14.00" fill="#000000">split</text>
</g>
<!-- split&#45;&gt;features -->
<g id="edge3" class="edge">
<title>split&#45;&gt;features</title>
<path fill="none" stroke="#000000" d="M1701.3328,-215.8314C1701.3328,-208.131 1701.3328,-198.9743 1701.3328,-190.4166"/>
<polygon fill="#000000" stroke="#000000" points="1704.8329,-190.4132 1701.3328,-180.4133 1697.8329,-190.4133 1704.8329,-190.4132"/>
</g>
<!-- stats -->
<g id="node4" class="node">
<title>stats</title>
<ellipse fill="none" stroke="#000000" cx="1701.3328" cy="-306" rx="33.5952" ry="18"/>
<text text-anchor="middle" x="1701.3328" y="-302.3" font-family="Times,serif" font-size="14.00" fill="#000000">stats</text>
</g>
<!-- stats&#45;&gt;split -->
<g id="edge4" class="edge">
<title>stats&#45;&gt;split</title>
<path fill="none" stroke="#000000" d="M1701.3328,-287.8314C1701.3328,-280.131 1701.3328,-270.9743 1701.3328,-262.4166"/>
<polygon fill="#000000" stroke="#000000" points="1704.8329,-262.4132 1701.3328,-252.4133 1697.8329,-262.4133 1704.8329,-262.4132"/>
</g>
<!-- fit@feed_forward_bernstein_flow -->
<g id="node5" class="node">
<title>fit@feed_forward_bernstein_flow</title>
<ellipse fill="none" stroke="#000000" cx="253.3328" cy="-378" rx="165.1707" ry="18"/>
<text text-anchor="middle" x="253.3328" y="-374.3" font-family="Times,serif" font-size="14.00" fill="#000000">fit@feed_forward_bernstein_flow</text>
</g>
<!-- fit@feed_forward_bernstein_flow&#45;&gt;split -->
<g id="edge5" class="edge">
<title>fit@feed_forward_bernstein_flow&#45;&gt;split</title>
<path fill="none" stroke="#000000" d="M308.3293,-361.0231C379.5417,-339.8516 507.8713,-304.445 620.3328,-288 826.5806,-257.8408 1487.2166,-239.3991 1659.7774,-235.0161"/>
<polygon fill="#000000" stroke="#000000" points="1660.0571,-238.5103 1669.9657,-234.7593 1659.8806,-231.5125 1660.0571,-238.5103"/>
</g>
<!-- fit@feed_forward_bernstein_flow&#45;&gt;stats -->
<g id="edge6" class="edge">
<title>fit@feed_forward_bernstein_flow&#45;&gt;stats</title>
<path fill="none" stroke="#000000" d="M368.8364,-365.0585C388.3435,-363.1577 408.402,-361.3791 427.3328,-360 908.5851,-324.9409 1493.8886,-310.4363 1657.19,-306.9001"/>
<polygon fill="#000000" stroke="#000000" points="1657.4077,-310.3964 1667.3305,-306.683 1657.2578,-303.398 1657.4077,-310.3964"/>
</g>
<!-- fit@feed_forward_gmm -->
<g id="node6" class="node">
<title>fit@feed_forward_gmm</title>
<ellipse fill="none" stroke="#000000" cx="556.3328" cy="-378" rx="120.4791" ry="18"/>
<text text-anchor="middle" x="556.3328" y="-374.3" font-family="Times,serif" font-size="14.00" fill="#000000">fit@feed_forward_gmm</text>
</g>
<!-- fit@feed_forward_gmm&#45;&gt;split -->
<g id="edge7" class="edge">
<title>fit@feed_forward_gmm&#45;&gt;split</title>
<path fill="none" stroke="#000000" d="M575.3798,-360.2221C599.8406,-338.6499 644.6148,-303.2723 690.3328,-288 783.2999,-256.9438 1481.8006,-239.0108 1660.0342,-234.9097"/>
<polygon fill="#000000" stroke="#000000" points="1660.1398,-238.4083 1670.0574,-234.6811 1659.9802,-231.4101 1660.1398,-238.4083"/>
</g>
<!-- fit@feed_forward_gmm&#45;&gt;stats -->
<g id="edge8" class="edge">
<title>fit@feed_forward_gmm&#45;&gt;stats</title>
<path fill="none" stroke="#000000" d="M651.1905,-366.9069C674.74,-364.3925 699.9356,-361.9055 723.3328,-360 1083.4375,-330.6717 1519.4591,-312.8296 1657.3438,-307.6094"/>
<polygon fill="#000000" stroke="#000000" points="1657.6453,-311.1006 1667.5067,-307.2271 1657.3822,-304.1055 1657.6453,-311.1006"/>
</g>
<!-- fit@feed_forward_normal_distribution -->
<g id="node7" class="node">
<title>fit@feed_forward_normal_distribution</title>
<ellipse fill="none" stroke="#000000" cx="920.3328" cy="-378" rx="188.4666" ry="18"/>
<text text-anchor="middle" x="920.3328" y="-374.3" font-family="Times,serif" font-size="14.00" fill="#000000">fit@feed_forward_normal_distribution</text>
</g>
<!-- fit@feed_forward_normal_distribution&#45;&gt;split -->
<g id="edge9" class="edge">
<title>fit@feed_forward_normal_distribution&#45;&gt;split</title>
<path fill="none" stroke="#000000" d="M971.7064,-360.5847C1033.7201,-340.2142 1141.5066,-306.8806 1236.3328,-288 1390.8042,-257.2436 1577.8842,-242.1072 1659.6757,-236.5675"/>
<polygon fill="#000000" stroke="#000000" points="1660.2973,-240.034 1670.0433,-235.8788 1659.8333,-233.0494 1660.2973,-240.034"/>
</g>
<!-- fit@feed_forward_normal_distribution&#45;&gt;stats -->
<g id="edge10" class="edge">
<title>fit@feed_forward_normal_distribution&#45;&gt;stats</title>
<path fill="none" stroke="#000000" d="M1056.3726,-365.4586C1236.4893,-348.8537 1544.5337,-320.4552 1657.85,-310.0087"/>
<polygon fill="#000000" stroke="#000000" points="1658.2471,-313.487 1667.8836,-309.0837 1657.6045,-306.5165 1658.2471,-313.487"/>
</g>
<!-- fit@feed_forward_quantile_regression -->
<g id="node8" class="node">
<title>fit@feed_forward_quantile_regression</title>
<ellipse fill="none" stroke="#000000" cx="1466.3328" cy="-378" rx="188.4666" ry="18"/>
<text text-anchor="middle" x="1466.3328" y="-374.3" font-family="Times,serif" font-size="14.00" fill="#000000">fit@feed_forward_quantile_regression</text>
</g>
<!-- fit@feed_forward_quantile_regression&#45;&gt;split -->
<g id="edge11" class="edge">
<title>fit@feed_forward_quantile_regression&#45;&gt;split</title>
<path fill="none" stroke="#000000" d="M1495.6205,-360.0535C1540.3978,-332.6155 1625.4523,-280.497 1670.9033,-252.6461"/>
<polygon fill="#000000" stroke="#000000" points="1673.0093,-255.4605 1679.7072,-247.2514 1669.3519,-249.492 1673.0093,-255.4605"/>
</g>
<!-- fit@feed_forward_quantile_regression&#45;&gt;stats -->
<g id="edge12" class="edge">
<title>fit@feed_forward_quantile_regression&#45;&gt;stats</title>
<path fill="none" stroke="#000000" d="M1522.6211,-360.7542C1565.7492,-347.5405 1624.1421,-329.6499 1662.2639,-317.97"/>
<polygon fill="#000000" stroke="#000000" points="1663.4368,-321.2713 1671.9728,-314.9954 1661.3862,-314.5784 1663.4368,-321.2713"/>
</g>
<!-- fit@wavenet_bernstein_flow -->
<g id="node9" class="node">
<title>fit@wavenet_bernstein_flow</title>
<ellipse fill="none" stroke="#000000" cx="1929.3328" cy="-378" rx="142.9746" ry="18"/>
<text text-anchor="middle" x="1929.3328" y="-374.3" font-family="Times,serif" font-size="14.00" fill="#000000">fit@wavenet_bernstein_flow</text>
</g>
<!-- fit@wavenet_bernstein_flow&#45;&gt;split -->
<g id="edge13" class="edge">
<title>fit@wavenet_bernstein_flow&#45;&gt;split</title>
<path fill="none" stroke="#000000" d="M1901.3755,-360.3428C1858.1004,-333.0111 1775.277,-280.7016 1730.9908,-252.7314"/>
<polygon fill="#000000" stroke="#000000" points="1732.7358,-249.6939 1722.4119,-247.3132 1728.9979,-255.6124 1732.7358,-249.6939"/>
</g>
<!-- fit@wavenet_bernstein_flow&#45;&gt;stats -->
<g id="edge14" class="edge">
<title>fit@wavenet_bernstein_flow&#45;&gt;stats</title>
<path fill="none" stroke="#000000" d="M1876.1646,-361.2101C1834.4914,-348.0501 1777.4803,-330.0466 1740.0504,-318.2266"/>
<polygon fill="#000000" stroke="#000000" points="1741.0999,-314.8877 1730.51,-315.2139 1738.9919,-321.5628 1741.0999,-314.8877"/>
</g>
<!-- fit@wavenet_gmm -->
<g id="node10" class="node">
<title>fit@wavenet_gmm</title>
<ellipse fill="none" stroke="#000000" cx="2187.3328" cy="-378" rx="97.4827" ry="18"/>
<text text-anchor="middle" x="2187.3328" y="-374.3" font-family="Times,serif" font-size="14.00" fill="#000000">fit@wavenet_gmm</text>
</g>
<!-- fit@wavenet_gmm&#45;&gt;split -->
<g id="edge15" class="edge">
<title>fit@wavenet_gmm&#45;&gt;split</title>
<path fill="none" stroke="#000000" d="M2135.3222,-362.5895C2036.7461,-333.3817 1824.8924,-270.6103 1738.8296,-245.1102"/>
<polygon fill="#000000" stroke="#000000" points="1739.7956,-241.7461 1729.2133,-242.2609 1737.807,-248.4577 1739.7956,-241.7461"/>
</g>
<!-- fit@wavenet_gmm&#45;&gt;stats -->
<g id="edge16" class="edge">
<title>fit@wavenet_gmm&#45;&gt;stats</title>
<path fill="none" stroke="#000000" d="M2116.103,-365.6325C2104.4906,-363.6945 2092.5832,-361.7543 2081.3328,-360 1959.3714,-340.9827 1814.9467,-321.2131 1744.4255,-311.7373"/>
<polygon fill="#000000" stroke="#000000" points="1744.5387,-308.2212 1734.1622,-310.3608 1743.6082,-315.1591 1744.5387,-308.2212"/>
</g>
<!-- fit@wavenet_normal_distribution -->
<g id="node11" class="node">
<title>fit@wavenet_normal_distribution</title>
<ellipse fill="none" stroke="#000000" cx="2582.3328" cy="-378" rx="166.2706" ry="18"/>
<text text-anchor="middle" x="2582.3328" y="-374.3" font-family="Times,serif" font-size="14.00" fill="#000000">fit@wavenet_normal_distribution</text>
</g>
<!-- fit@wavenet_normal_distribution&#45;&gt;split -->
<g id="edge17" class="edge">
<title>fit@wavenet_normal_distribution&#45;&gt;split</title>
<path fill="none" stroke="#000000" d="M2542.4531,-360.4323C2492.8531,-339.4195 2405.0869,-304.961 2326.3328,-288 2214.3264,-263.8776 1864.2567,-242.9306 1743.0979,-236.2335"/>
<polygon fill="#000000" stroke="#000000" points="1742.943,-232.7199 1732.7662,-235.6664 1742.5593,-239.7093 1742.943,-232.7199"/>
</g>
<!-- fit@wavenet_normal_distribution&#45;&gt;stats -->
<g id="edge18" class="edge">
<title>fit@wavenet_normal_distribution&#45;&gt;stats</title>
<path fill="none" stroke="#000000" d="M2461.8238,-365.5661C2441.9559,-363.6263 2421.5722,-361.7028 2402.3328,-360 2153.802,-338.0038 1855.2394,-316.7066 1744.9906,-309.0157"/>
<polygon fill="#000000" stroke="#000000" points="1745.1363,-305.5174 1734.9173,-308.3143 1744.65,-312.5005 1745.1363,-305.5174"/>
</g>
<!-- fit@wavenet_quantile_regression -->
<g id="node12" class="node">
<title>fit@wavenet_quantile_regression</title>
<ellipse fill="none" stroke="#000000" cx="3008.3328" cy="-378" rx="166.2706" ry="18"/>
<text text-anchor="middle" x="3008.3328" y="-374.3" font-family="Times,serif" font-size="14.00" fill="#000000">fit@wavenet_quantile_regression</text>
</g>
<!-- fit@wavenet_quantile_regression&#45;&gt;split -->
<g id="edge19" class="edge">
<title>fit@wavenet_quantile_regression&#45;&gt;split</title>
<path fill="none" stroke="#000000" d="M2981.6901,-360.1997C2947.7417,-338.6043 2886.4722,-303.2029 2828.3328,-288 2721.8501,-260.1559 1933.6822,-239.5809 1742.851,-234.9728"/>
<polygon fill="#000000" stroke="#000000" points="1742.758,-231.4696 1732.6768,-234.7286 1742.59,-238.4676 1742.758,-231.4696"/>
</g>
<!-- fit@wavenet_quantile_regression&#45;&gt;stats -->
<g id="edge20" class="edge">
<title>fit@wavenet_quantile_regression&#45;&gt;stats</title>
<path fill="none" stroke="#000000" d="M2871.585,-367.6826C2834.521,-365.0256 2794.398,-362.2765 2757.3328,-360 2364.9671,-335.9016 1890.123,-314.3347 1745.3285,-307.9262"/>
<polygon fill="#000000" stroke="#000000" points="1745.2294,-304.4185 1735.0846,-307.4738 1744.9204,-311.4117 1745.2294,-304.4185"/>
</g>
<!-- evaluate@feed_forward_bernstein_flow -->
<g id="node13" class="node">
<title>evaluate@feed_forward_bernstein_flow</title>
<ellipse fill="none" stroke="#000000" cx="194.3328" cy="-450" rx="194.1657" ry="18"/>
<text text-anchor="middle" x="194.3328" y="-446.3" font-family="Times,serif" font-size="14.00" fill="#000000">evaluate@feed_forward_bernstein_flow</text>
</g>
<!-- evaluate@feed_forward_bernstein_flow&#45;&gt;split -->
<g id="edge21" class="edge">
<title>evaluate@feed_forward_bernstein_flow&#45;&gt;split</title>
<path fill="none" stroke="#000000" d="M117.6584,-433.3454C98.3534,-425.3291 79.8619,-413.4844 68.3328,-396 39.8918,-352.8682 66.8396,-314.2601 111.3328,-288 179.9249,-247.5167 1416.0978,-236.1445 1659.8091,-234.2919"/>
<polygon fill="#000000" stroke="#000000" points="1660.0397,-237.7904 1670.0131,-234.2155 1659.9872,-230.7906 1660.0397,-237.7904"/>
</g>
<!-- evaluate@feed_forward_bernstein_flow&#45;&gt;stats -->
<g id="edge22" class="edge">
<title>evaluate@feed_forward_bernstein_flow&#45;&gt;stats</title>
<path fill="none" stroke="#000000" d="M331.1684,-437.2055C353.6005,-435.3154 376.6076,-433.5018 398.3328,-432 478.1313,-426.4837 1044.9435,-430.0298 1117.3328,-396 1136.9757,-386.766 1130.9155,-369.6995 1150.3328,-360 1195.294,-337.5406 1534.5815,-315.7351 1657.2497,-308.5067"/>
<polygon fill="#000000" stroke="#000000" points="1657.6323,-311.9904 1667.4108,-307.9122 1657.2234,-305.0024 1657.6323,-311.9904"/>
</g>
<!-- evaluate@feed_forward_bernstein_flow&#45;&gt;fit@feed_forward_bernstein_flow -->
<g id="edge23" class="edge">
<title>evaluate@feed_forward_bernstein_flow&#45;&gt;fit@feed_forward_bernstein_flow</title>
<path fill="none" stroke="#000000" d="M209.2209,-431.8314C216.0857,-423.454 224.3628,-413.3531 231.8839,-404.1749"/>
<polygon fill="#000000" stroke="#000000" points="234.613,-406.3665 238.2441,-396.4133 229.1987,-401.9297 234.613,-406.3665"/>
</g>
<!-- evaluate@feed_forward_gmm -->
<g id="node14" class="node">
<title>evaluate@feed_forward_gmm</title>
<ellipse fill="none" stroke="#000000" cx="556.3328" cy="-450" rx="149.4735" ry="18"/>
<text text-anchor="middle" x="556.3328" y="-446.3" font-family="Times,serif" font-size="14.00" fill="#000000">evaluate@feed_forward_gmm</text>
</g>
<!-- evaluate@feed_forward_gmm&#45;&gt;split -->
<g id="edge24" class="edge">
<title>evaluate@feed_forward_gmm&#45;&gt;split</title>
<path fill="none" stroke="#000000" d="M447.1984,-437.6452C306.3939,-421.705 79.3328,-396 79.3328,-396 68.6744,-384.0669 69.1726,-372.3601 79.3328,-360 184.3301,-232.2675 280.1508,-307.6048 444.3328,-288 687.7975,-258.9281 1470.9774,-239.3163 1659.9938,-234.9308"/>
<polygon fill="#000000" stroke="#000000" points="1660.1528,-238.4281 1670.0694,-234.6984 1659.9914,-231.43 1660.1528,-238.4281"/>
</g>
<!-- evaluate@feed_forward_gmm&#45;&gt;stats -->
<g id="edge25" class="edge">
<title>evaluate@feed_forward_gmm&#45;&gt;stats</title>
<path fill="none" stroke="#000000" d="M663.3731,-437.3503C680.4102,-435.4682 697.8473,-433.6192 714.3328,-432 811.0858,-422.4967 1061.5786,-435.6756 1150.3328,-396 1171.5717,-386.5056 1167.202,-369.7327 1188.3328,-360 1271.3822,-321.7481 1548.3414,-310.1621 1657.0226,-307.0396"/>
<polygon fill="#000000" stroke="#000000" points="1657.4072,-310.5304 1667.3066,-306.7551 1657.2136,-303.5331 1657.4072,-310.5304"/>
</g>
<!-- evaluate@feed_forward_gmm&#45;&gt;fit@feed_forward_gmm -->
<g id="edge26" class="edge">
<title>evaluate@feed_forward_gmm&#45;&gt;fit@feed_forward_gmm</title>
<path fill="none" stroke="#000000" d="M556.3328,-431.8314C556.3328,-424.131 556.3328,-414.9743 556.3328,-406.4166"/>
<polygon fill="#000000" stroke="#000000" points="559.8329,-406.4132 556.3328,-396.4133 552.8329,-406.4133 559.8329,-406.4132"/>
</g>
<!-- evaluate@feed_forward_normal_distribution -->
<g id="node15" class="node">
<title>evaluate@feed_forward_normal_distribution</title>
<ellipse fill="none" stroke="#000000" cx="941.3328" cy="-450" rx="217.9616" ry="18"/>
<text text-anchor="middle" x="941.3328" y="-446.3" font-family="Times,serif" font-size="14.00" fill="#000000">evaluate@feed_forward_normal_distribution</text>
</g>
<!-- evaluate@feed_forward_normal_distribution&#45;&gt;split -->
<g id="edge27" class="edge">
<title>evaluate@feed_forward_normal_distribution&#45;&gt;split</title>
<path fill="none" stroke="#000000" d="M809.1761,-435.6936C745.5726,-423.3824 689.6742,-400.8397 723.3328,-360 784.082,-286.2898 1482.2134,-245.3367 1660.2245,-236.0474"/>
<polygon fill="#000000" stroke="#000000" points="1660.4284,-239.5416 1670.2343,-235.5299 1660.0669,-232.551 1660.4284,-239.5416"/>
</g>
<!-- evaluate@feed_forward_normal_distribution&#45;&gt;stats -->
<g id="edge28" class="edge">
<title>evaluate@feed_forward_normal_distribution&#45;&gt;stats</title>
<path fill="none" stroke="#000000" d="M1036.9588,-433.7909C1083.2668,-424.7578 1139.3219,-412.0641 1188.3328,-396 1225.7686,-383.7298 1231.3782,-370.557 1269.3328,-360 1407.4938,-321.5709 1578.1536,-310.4429 1657.25,-307.2568"/>
<polygon fill="#000000" stroke="#000000" points="1657.4788,-310.7507 1667.3388,-306.8739 1657.2133,-303.7558 1657.4788,-310.7507"/>
</g>
<!-- evaluate@feed_forward_normal_distribution&#45;&gt;fit@feed_forward_normal_distribution -->
<g id="edge29" class="edge">
<title>evaluate@feed_forward_normal_distribution&#45;&gt;fit@feed_forward_normal_distribution</title>
<path fill="none" stroke="#000000" d="M936.0336,-431.8314C933.7629,-424.0463 931.0582,-414.7729 928.5387,-406.1347"/>
<polygon fill="#000000" stroke="#000000" points="931.8634,-405.0332 925.7033,-396.4133 925.1434,-406.9933 931.8634,-405.0332"/>
</g>
<!-- evaluate@feed_forward_quantile_regression -->
<g id="node16" class="node">
<title>evaluate@feed_forward_quantile_regression</title>
<ellipse fill="none" stroke="#000000" cx="1466.3328" cy="-450" rx="217.9616" ry="18"/>
<text text-anchor="middle" x="1466.3328" y="-446.3" font-family="Times,serif" font-size="14.00" fill="#000000">evaluate@feed_forward_quantile_regression</text>
</g>
<!-- evaluate@feed_forward_quantile_regression&#45;&gt;split -->
<g id="edge30" class="edge">
<title>evaluate@feed_forward_quantile_regression&#45;&gt;split</title>
<path fill="none" stroke="#000000" d="M1350.1558,-434.7674C1292.0563,-422.0499 1239.7779,-399.4064 1269.3328,-360 1317.1038,-296.3052 1562.6548,-254.1634 1660.7645,-239.631"/>
<polygon fill="#000000" stroke="#000000" points="1661.496,-243.0614 1670.8851,-238.1527 1660.4842,-236.1349 1661.496,-243.0614"/>
</g>
<!-- evaluate@feed_forward_quantile_regression&#45;&gt;stats -->
<g id="edge31" class="edge">
<title>evaluate@feed_forward_quantile_regression&#45;&gt;stats</title>
<path fill="none" stroke="#000000" d="M1555.1981,-433.5242C1599.3016,-423.8219 1646.6608,-410.605 1663.3328,-396 1681.4756,-380.1064 1691.1879,-354.0976 1696.2374,-334.1164"/>
<polygon fill="#000000" stroke="#000000" points="1699.6644,-334.8301 1698.4729,-324.3025 1692.8392,-333.2754 1699.6644,-334.8301"/>
</g>
<!-- evaluate@feed_forward_quantile_regression&#45;&gt;fit@feed_forward_quantile_regression -->
<g id="edge32" class="edge">
<title>evaluate@feed_forward_quantile_regression&#45;&gt;fit@feed_forward_quantile_regression</title>
<path fill="none" stroke="#000000" d="M1466.3328,-431.8314C1466.3328,-424.131 1466.3328,-414.9743 1466.3328,-406.4166"/>
<polygon fill="#000000" stroke="#000000" points="1469.8329,-406.4132 1466.3328,-396.4133 1462.8329,-406.4133 1469.8329,-406.4132"/>
</g>
<!-- evaluate@wavenet_bernstein_flow -->
<g id="node17" class="node">
<title>evaluate@wavenet_bernstein_flow</title>
<ellipse fill="none" stroke="#000000" cx="1900.3328" cy="-450" rx="172.4698" ry="18"/>
<text text-anchor="middle" x="1900.3328" y="-446.3" font-family="Times,serif" font-size="14.00" fill="#000000">evaluate@wavenet_bernstein_flow</text>
</g>
<!-- evaluate@wavenet_bernstein_flow&#45;&gt;split -->
<g id="edge33" class="edge">
<title>evaluate@wavenet_bernstein_flow&#45;&gt;split</title>
<path fill="none" stroke="#000000" d="M2021.6507,-437.2064C2133.7359,-424.7932 2284.3014,-406.3572 2293.3328,-396 2303.8483,-383.9408 2303.3878,-372.4457 2293.3328,-360 2223.552,-273.6281 1865.5204,-243.9918 1742.7255,-236.2801"/>
<polygon fill="#000000" stroke="#000000" points="1742.7961,-232.778 1732.6011,-235.6609 1742.3687,-239.765 1742.7961,-232.778"/>
</g>
<!-- evaluate@wavenet_bernstein_flow&#45;&gt;stats -->
<g id="edge34" class="edge">
<title>evaluate@wavenet_bernstein_flow&#45;&gt;stats</title>
<path fill="none" stroke="#000000" d="M1816.5253,-434.1866C1791.0732,-426.1253 1764.53,-414.0444 1744.3328,-396 1725.9681,-379.5928 1714.7375,-353.641 1708.3821,-333.812"/>
<polygon fill="#000000" stroke="#000000" points="1711.6948,-332.6724 1705.491,-324.0838 1704.9848,-334.6666 1711.6948,-332.6724"/>
</g>
<!-- evaluate@wavenet_bernstein_flow&#45;&gt;fit@wavenet_bernstein_flow -->
<g id="edge35" class="edge">
<title>evaluate@wavenet_bernstein_flow&#45;&gt;fit@wavenet_bernstein_flow</title>
<path fill="none" stroke="#000000" d="M1907.6507,-431.8314C1910.8204,-423.9617 1914.6027,-414.5712 1918.1141,-405.8533"/>
<polygon fill="#000000" stroke="#000000" points="1921.4267,-406.9968 1921.9163,-396.4133 1914.9336,-404.3815 1921.4267,-406.9968"/>
</g>
<!-- evaluate@wavenet_gmm -->
<g id="node18" class="node">
<title>evaluate@wavenet_gmm</title>
<ellipse fill="none" stroke="#000000" cx="2217.3328" cy="-450" rx="126.978" ry="18"/>
<text text-anchor="middle" x="2217.3328" y="-446.3" font-family="Times,serif" font-size="14.00" fill="#000000">evaluate@wavenet_gmm</text>
</g>
<!-- evaluate@wavenet_gmm&#45;&gt;split -->
<g id="edge36" class="edge">
<title>evaluate@wavenet_gmm&#45;&gt;split</title>
<path fill="none" stroke="#000000" d="M2315.8836,-438.6376C2336.1966,-436.3731 2357.4528,-434.0598 2377.3328,-432 2419.5182,-427.6292 2728.7927,-427.3717 2757.3328,-396 2768.0997,-384.1648 2767.4666,-372.3817 2757.3328,-360 2691.7342,-279.8507 1929.8627,-243.4036 1742.6747,-235.6234"/>
<polygon fill="#000000" stroke="#000000" points="1742.8182,-232.1264 1732.6828,-235.2128 1742.5307,-239.1205 1742.8182,-232.1264"/>
</g>
<!-- evaluate@wavenet_gmm&#45;&gt;stats -->
<g id="edge37" class="edge">
<title>evaluate@wavenet_gmm&#45;&gt;stats</title>
<path fill="none" stroke="#000000" d="M2125.1777,-437.6292C2110.5153,-435.711 2095.5119,-433.7778 2081.3328,-432 1946.3346,-415.0738 1897.1407,-460.4753 1777.3328,-396 1773.5953,-393.9886 1742.7379,-356.7296 1721.5105,-330.7894"/>
<polygon fill="#000000" stroke="#000000" points="1724.0405,-328.3541 1715.0034,-322.8239 1718.6194,-332.7826 1724.0405,-328.3541"/>
</g>
<!-- evaluate@wavenet_gmm&#45;&gt;fit@wavenet_gmm -->
<g id="edge38" class="edge">
<title>evaluate@wavenet_gmm&#45;&gt;fit@wavenet_gmm</title>
<path fill="none" stroke="#000000" d="M2209.7625,-431.8314C2206.4835,-423.9617 2202.5707,-414.5712 2198.9383,-405.8533"/>
<polygon fill="#000000" stroke="#000000" points="2202.0819,-404.2979 2195.005,-396.4133 2195.6204,-406.9902 2202.0819,-404.2979"/>
</g>
<!-- evaluate@wavenet_normal_distribution -->
<g id="node19" class="node">
<title>evaluate@wavenet_normal_distribution</title>
<ellipse fill="none" stroke="#000000" cx="2582.3328" cy="-450" rx="195.7654" ry="18"/>
<text text-anchor="middle" x="2582.3328" y="-446.3" font-family="Times,serif" font-size="14.00" fill="#000000">evaluate@wavenet_normal_distribution</text>
</g>
<!-- evaluate@wavenet_normal_distribution&#45;&gt;split -->
<g id="edge39" class="edge">
<title>evaluate@wavenet_normal_distribution&#45;&gt;split</title>
<path fill="none" stroke="#000000" d="M2693.6146,-435.1664C2750.2629,-422.5579 2801.925,-399.8889 2774.3328,-360 2722.7232,-285.3905 2672.0442,-306.9842 2583.3328,-288 2419.8031,-253.0048 1895.1142,-238.4507 1743.0191,-234.9023"/>
<polygon fill="#000000" stroke="#000000" points="1742.8,-231.3965 1732.7222,-234.6657 1742.6392,-238.3946 1742.8,-231.3965"/>
</g>
<!-- evaluate@wavenet_normal_distribution&#45;&gt;stats -->
<g id="edge40" class="edge">
<title>evaluate@wavenet_normal_distribution&#45;&gt;stats</title>
<path fill="none" stroke="#000000" d="M2505.8548,-433.3259C2466.1517,-423.8736 2417.1257,-410.9507 2374.3328,-396 2337.1418,-383.0065 2331.4583,-369.9219 2293.3328,-360 2189.5945,-333.003 1864.4122,-314.2632 1745.4722,-308.1561"/>
<polygon fill="#000000" stroke="#000000" points="1745.4432,-304.6502 1735.2783,-307.6378 1745.0876,-311.6411 1745.4432,-304.6502"/>
</g>
<!-- evaluate@wavenet_normal_distribution&#45;&gt;fit@wavenet_normal_distribution -->
<g id="edge41" class="edge">
<title>evaluate@wavenet_normal_distribution&#45;&gt;fit@wavenet_normal_distribution</title>
<path fill="none" stroke="#000000" d="M2582.3328,-431.8314C2582.3328,-424.131 2582.3328,-414.9743 2582.3328,-406.4166"/>
<polygon fill="#000000" stroke="#000000" points="2585.8329,-406.4132 2582.3328,-396.4133 2578.8329,-406.4133 2585.8329,-406.4132"/>
</g>
<!-- evaluate@wavenet_quantile_regression -->
<g id="node20" class="node">
<title>evaluate@wavenet_quantile_regression</title>
<ellipse fill="none" stroke="#000000" cx="3008.3328" cy="-450" rx="195.7654" ry="18"/>
<text text-anchor="middle" x="3008.3328" y="-446.3" font-family="Times,serif" font-size="14.00" fill="#000000">evaluate@wavenet_quantile_regression</text>
</g>
<!-- evaluate@wavenet_quantile_regression&#45;&gt;split -->
<g id="edge42" class="edge">
<title>evaluate@wavenet_quantile_regression&#45;&gt;split</title>
<path fill="none" stroke="#000000" d="M3102.9872,-434.1692C3158.5887,-420.6414 3212.7056,-397.3148 3183.3328,-360 3099.0554,-252.9353 3020.2298,-307.1918 2885.3328,-288 2657.7552,-255.6224 1925.5683,-238.6285 1742.9135,-234.8278"/>
<polygon fill="#000000" stroke="#000000" points="1742.7305,-231.3234 1732.6604,-234.6164 1742.5861,-238.3219 1742.7305,-231.3234"/>
</g>
<!-- evaluate@wavenet_quantile_regression&#45;&gt;stats -->
<g id="edge43" class="edge">
<title>evaluate@wavenet_quantile_regression&#45;&gt;stats</title>
<path fill="none" stroke="#000000" d="M2863.9226,-437.8226C2689.564,-423.0042 2418.1182,-399.5146 2407.3328,-396 2377.7646,-386.3648 2376.9307,-369.5433 2347.3328,-360 2234.8132,-323.72 1871.8887,-310.6187 1745.3467,-307.0867"/>
<polygon fill="#000000" stroke="#000000" points="1745.3375,-303.5852 1735.2458,-306.8112 1745.1466,-310.5826 1745.3375,-303.5852"/>
</g>
<!-- evaluate@wavenet_quantile_regression&#45;&gt;fit@wavenet_quantile_regression -->
<g id="edge44" class="edge">
<title>evaluate@wavenet_quantile_regression&#45;&gt;fit@wavenet_quantile_regression</title>
<path fill="none" stroke="#000000" d="M3008.3328,-431.8314C3008.3328,-424.131 3008.3328,-414.9743 3008.3328,-406.4166"/>
<polygon fill="#000000" stroke="#000000" points="3011.8329,-406.4132 3008.3328,-396.4133 3004.8329,-406.4133 3011.8329,-406.4132"/>
</g>
</g>
</svg>
